<?xml version="1.0" encoding="UTF-8"?>
<svg id="Layer_2" data-name="Layer 2" xmlns="http://www.w3.org/2000/svg" viewBox="0 0 963.07 247.76">
  <defs>
    <style>
      .cls-1, .cls-2 {
        fill: #441d1d;
      }

      .cls-2 {
        font-family: MuseoModerno-BlackItalic, MuseoModerno;
        font-size: 92.7px;
        font-style: italic;
        font-weight: 800;
      }

      .cls-3 {
        letter-spacing: -.02em;
      }

      .cls-4 {
        letter-spacing: -.03em;
      }
    </style>
  </defs>
  <g id="Layer_1-2" data-name="Layer 1">
    <polygon class="cls-1" points="495.7 0 31.62 0 0 41 0 90 14.5 104.5 14.5 140.1 105 140.1 105 104.5 85.06 89.89 85 46 495.7 46 495.7 0"/>
    <rect class="cls-1" x="97.83" y="104.5" width="91.8" height="35.6"/>
    <rect class="cls-1" x="31.46" y="169.55" width="76.6" height="35.6"/>
    <rect class="cls-1" x="49.07" y="126.2" width="41.36" height="45.35" transform="translate(-79.12 218.63) rotate(-90)"/>
    <polygon class="cls-1" points="467.37 0 931.45 0 963.07 41 963.07 90 948.57 104.5 948.57 140.1 858.07 140.1 858.07 104.5 878.01 89.89 878.07 46 467.37 46 467.37 0"/>
    <rect class="cls-1" x="855.02" y="169.55" width="76.6" height="35.6" transform="translate(1786.63 374.7) rotate(-180)"/>
    <rect class="cls-1" x="872.63" y="126.2" width="41.36" height="45.35" transform="translate(744.44 1042.19) rotate(-90)"/>
    <text class="cls-2" transform="translate(530.07 128.25)"><tspan class="cls-4"><tspan x="0" y="0">Mesin</tspan></tspan><tspan class="cls-3"><tspan x="-33.6" y="76.95">Printing</tspan></tspan></text>
    <g>
      <path class="cls-1" d="M125.21,205.15l62.54-120.14c3.81-7.36,8.74-12.63,14.8-15.78,6.05-3.16,12.3-4.73,18.74-4.73,7.1,0,13.64,1.91,19.63,5.72,5.98,3.82,9.83,9.8,11.54,17.95l24.66,116.98h-45.18l-3.75-24.07h-47.15l-11.64,24.07h-44.19ZM195.04,148.53h29.39l-5.92-44.39c0-.39-.13-.69-.39-.89-.27-.2-.59-.3-.99-.3-.26,0-.53.1-.79.3-.26.2-.53.49-.79.89l-20.52,44.39Z"/>
      <path class="cls-1" d="M283.42,205.15l5.33-33.34h21.5l11.05-71.41h-21.5l5.33-33.34h85.81l-5.33,33.34h-21.7l-11.05,71.41h21.7l-5.33,33.34h-85.81Z"/>
      <path class="cls-1" d="M429.6,247.76c-6.45,0-11.97-1.35-16.57-4.04-4.61-2.7-8.12-6.38-10.55-11.05-2.44-4.67-3.65-9.96-3.65-15.88,0-7.76,1.41-15.12,4.24-22.09,2.83-6.97,7.23-13.54,13.22-19.73,5.98-6.18,13.71-11.97,23.18-17.36l10.65,24.07c-3.42,1.45-6.41,3.68-8.98,6.71-2.56,3.03-4.54,6.28-5.92,9.77-1.38,3.49-2.07,6.54-2.07,9.17,0,1.71.36,3.16,1.08,4.34.72,1.18,1.87,1.78,3.45,1.78,1.84,0,3.42-.72,4.73-2.17,1.31-1.45,2.33-3.35,3.06-5.72.72-2.37,1.25-5,1.58-7.89.33-2.89.49-5.85.49-8.88,0-2.63-.1-5.23-.3-7.79-.2-2.56-.56-4.9-1.08-7-1.05-1.45-2.7-2.37-4.93-2.76-2.24-.39-4.21-.79-5.92-1.18h-13.61c-6.31,0-11.84-1.78-16.57-5.33-4.73-3.55-7.1-8.55-7.1-14.99,0-6.84,1.81-12.3,5.43-16.37,3.62-4.08,8.05-7.63,13.32-10.65l33.14-19.33c.4-.26.72-.56.99-.89.26-.33.39-.62.39-.89s-.13-.52-.39-.79c-.26-.26-.59-.39-.99-.39h-54.25l5.13-33.34h68.46c10.12,0,17.66,2.4,22.59,7.2,4.93,4.8,7.4,10.75,7.4,17.85,0,5.66-1.15,10.55-3.45,14.7-2.3,4.14-5.23,7.69-8.78,10.65s-7.23,5.56-11.05,7.79l-24.86,14.6c-.27.13-.49.36-.69.69-.2.33-.3.63-.3.89,0,.66.72,1.18,2.17,1.58l2.17.59c7.63,2.5,13.41,5.89,17.36,10.16,3.95,4.27,6.61,9.31,7.99,15.09,1.38,5.79,2.07,12.1,2.07,18.94,0,7.5-1.15,14.83-3.45,22-2.3,7.17-5.72,13.61-10.26,19.33-4.54,5.72-10.03,10.26-16.47,13.61-6.45,3.35-13.81,5.03-22.1,5.03Z"/>
    </g>
  </g>
</svg>